<svg xmlns="http://www.w3.org/2000/svg" viewBox="0 0 64 64">
  <!-- Rice base -->
  <ellipse cx="32" cy="40" rx="26" ry="16" fill="#FFF5E6" stroke="#E8D5B7" stroke-width="1.5"/>
  <!-- Rice texture dots -->
  <circle cx="20" cy="38" r="1.2" fill="#E8D5B7" opacity="0.5"/>
  <circle cx="28" cy="43" r="1" fill="#E8D5B7" opacity="0.5"/>
  <circle cx="36" cy="36" r="1.2" fill="#E8D5B7" opacity="0.5"/>
  <circle cx="42" cy="41" r="1" fill="#E8D5B7" opacity="0.5"/>
  <circle cx="25" cy="35" r="0.8" fill="#E8D5B7" opacity="0.4"/>
  <circle cx="38" cy="44" r="0.8" fill="#E8D5B7" opacity="0.4"/>
  <!-- Salmon/fish on top -->
  <ellipse cx="32" cy="30" rx="22" ry="12" fill="#FF7B54" stroke="#E8653A" stroke-width="1"/>
  <!-- Fish shine -->
  <ellipse cx="26" cy="26" rx="8" ry="4" fill="#FF9B7B" opacity="0.6"/>
  <!-- Nori belt -->
  <rect x="28" y="28" width="8" height="24" rx="1" fill="#2D5016" opacity="0.85"/>
  <!-- Cute face -->
  <circle cx="26" cy="30" r="2" fill="#1A1A2E"/>
  <circle cx="38" cy="30" r="2" fill="#1A1A2E"/>
  <circle cx="25.2" cy="29.2" r="0.7" fill="white"/>
  <circle cx="37.2" cy="29.2" r="0.7" fill="white"/>
  <!-- Smile -->
  <path d="M29 34 Q32 37 35 34" stroke="#1A1A2E" stroke-width="1.5" fill="none" stroke-linecap="round"/>
  <!-- Blush -->
  <ellipse cx="22" cy="33" rx="3" ry="2" fill="#FFB5B5" opacity="0.5"/>
  <ellipse cx="42" cy="33" rx="3" ry="2" fill="#FFB5B5" opacity="0.5"/>
</svg>
